Coordinates
version=1
nRows=14
nColumns=24
inDegrees=yes

Units are S.I. units (second, meters, Newtons, ...)
Angles are in degrees.

endheader
time	pelvis_tilt	pelvis_list	pelvis_rotation	pelvis_tx	pelvis_ty	pelvis_tz	hip_flexion_r	hip_adduction_r	hip_rotation_r	knee_angle_r	ankle_angle_r	subtalar_angle_r	mtp_angle_r	hip_flexion_l	hip_adduction_l	hip_rotation_l	knee_angle_l	ankle_angle_l	subtalar_angle_l	mtp_angle_l	lumbar_extension	lumbar_bending	lumbar_rotation
      5.69000000	    -12.00350838	      8.06367345	      5.75841717	     -0.28653112	     -0.03713774	      2.02991429	     16.35727590	    -14.56613352	    -12.00913380	    -61.07948179	    -27.48592861	     -6.34659635	     29.71188200	     29.83108706	     15.01105955	     -0.35690609	    -21.05562160	     -3.93812581	     -6.42100536	     14.74322327	      9.61694112	     -9.62746506	     -3.62581490
      5.70000000	    -11.87831783	      8.01989268	      5.71255943	     -0.27440390	     -0.03493943	      2.02938349	     18.20205593	    -14.37465865	    -11.03556840	    -62.84828010	    -25.64799273	     -8.22886617	     27.98369264	     28.62228809	     14.92359929	     -0.48571607	    -20.60013362	     -3.61635025	     -6.37975215	     16.69429449	      9.38806415	     -9.55041802	     -3.86271431
      5.71000000	    -11.63900851	      7.93832819	      5.57136240	     -0.26237811	     -0.03248407	      2.02893317	     19.90595512	    -14.06283741	     -9.98767291	    -64.21574597	    -23.89329022	     -9.52846004	     28.01385481	     27.24714072	     14.74696316	     -0.61094334	    -20.10080428	     -2.93167231	     -6.01385812	     17.12235852	      9.04640290	     -9.39257904	     -4.04848117
      5.72000000	    -11.44432847	      7.79925281	      5.43714386	     -0.25040308	     -0.03003415	      2.02843381	     21.61614777	    -13.66480289	     -8.99138580	    -65.25631622	    -22.14397965	    -10.33612143	     27.95430606	     25.83534453	     14.54556446	     -0.52121142	    -19.44953500	     -2.32544385	     -5.77819654	     17.44014368	      8.76249414	     -9.17073618	     -4.23584711
      5.73000000	    -11.25152812	      7.57394772	      5.29658589	     -0.23859416	     -0.02758540	      2.02797112	     23.28789572	    -13.14034949	     -8.09019406	    -65.99246778	    -20.34807603	    -10.75712039	     26.64439645	     24.37842494	     14.27855137	     -0.24197157	    -18.68699541	     -1.85428699	     -5.74566499	     17.68299053	      8.47404950	     -8.85500581	     -4.41505661
      5.74000000	    -11.02966756	      7.32594325	      5.18143952	     -0.22678976	     -0.02520091	      2.02737040	     24.81816656	    -12.61211798	     -7.29648278	    -66.35034973	    -18.74083367	    -10.83805755	     26.83048134	     22.83922929	     14.02705188	      0.19083730	    -17.83937898	     -1.41784178	     -5.87530198	     17.49732121	      8.16116976	     -8.50597290	     -4.62405935
      5.75000000	    -10.70164133	      7.02138003	      5.08887698	     -0.21495117	     -0.02276747	      2.02667159	     26.10469302	    -12.03955662	     -6.67676087	    -66.32738770	    -17.25829377	    -10.77605499	     27.02148338	     21.15399787	     13.74599889	      0.79936521	    -16.95287830	     -0.95154137	     -6.16150939	     16.37004770	      7.75086926	     -8.08580698	     -4.82953738
      5.76000000	    -10.46669771	      6.65781142	      5.10757086	     -0.20322553	     -0.02066210	      2.02582028	     27.38182810	    -11.47997953	     -6.25320623	    -66.00805375	    -15.79893117	    -10.52300608	     27.55889483	     19.63537631	     13.43453186	      1.43031876	    -16.17227953	     -0.45752587	     -6.38805165	     15.19849387	      7.42302950	     -7.62972219	     -5.14086115
      5.77000000	    -10.24966116	      6.23295959	      5.21800986	     -0.19156045	     -0.01874352	      2.02488082	     28.54868453	    -10.92148369	     -6.04250632	    -65.35601676	    -14.47345738	    -10.29199453	     28.19488266	     18.19191283	     13.06573142	      2.05044453	    -15.46618060	     -0.00974052	     -6.56707723	     14.32736477	      7.11005257	     -7.12971152	     -5.52237166
      5.78000000	    -10.14510009	      5.80150414	      5.40460607	     -0.17996529	     -0.01718829	      2.02389419	     29.74478350	    -10.42558510	     -5.97509349	    -64.45452163	    -13.19304982	    -10.02205381	     28.52660270	     16.93678151	     12.68569038	      2.56000869	    -14.83929542	      0.36971769	     -6.65242082	     14.06536516	      6.90978923	     -6.65082480	     -5.93961296
      5.79000000	     -9.94787428	      5.32740986	      5.67189557	     -0.16836567	     -0.01564741	      2.02278366	     30.69356427	     -9.95980549	     -6.12994227	    -63.21216364	    -12.20016823	     -9.94451227	     28.76413209	     15.58965999	     12.26889600	      3.17612183	    -14.21634230	      0.68700714	     -6.82365687	     13.69497414	      6.61165642	     -6.12578478	     -6.41149485
      5.80000000	     -9.79199486	      4.86356534	      5.97732107	     -0.15679773	     -0.01436955	      2.02166711	     31.59720636	     -9.55658637	     -6.40048729	    -61.72693253	    -11.40054017	     -9.97298820	     28.77694844	     14.32212343	     11.84487660	      3.73327664	    -13.63741639	      1.04456663	     -6.88467971	     13.35391908	      6.35556734	     -5.62483199	     -6.87670201
      5.81000000	     -9.56781822	      4.44270724	      6.28149586	     -0.14519488	     -0.01320875	      2.02058021	     32.33058886	     -9.21961051	     -6.74441780	    -60.01455871	    -10.69258376	     -9.99720186	     28.23894761	     12.97057397	     11.43396555	      4.27144021	    -13.03803263	      1.43460178	     -6.89569940	     12.71621656	      6.03188638	     -5.16249622	     -7.26376547
      5.82000000	     -9.40240000	      4.02048509	      6.64269498	     -0.13368852	     -0.01241136	      2.01951516	     33.03984812	     -8.92007232	     -7.18413466	    -58.12376048	     -9.90008433	     -9.99058631	     26.91281818	     11.74341926	     11.01380334	      4.80279597	    -12.54231312	      1.94751158	     -6.82792484	     12.07453781	      5.75365697	     -4.71937472	     -7.75361072
